Format : Windows Media
File size : 55.7 MiB
Duration : 2mn 22s
Overall bit rate mode : Constant
Overall bit rate : 3 280 Kbps
Maximum Overall bit rate : 3 273 Kbps

Video
ID : 2
Format : VC-1
Format profile : AP@L2
Codec ID : WVC1
Duration : 2mn 22s
Bit rate mode : Constant
Bit rate : 2 997 Kbps
Width : 1 280 pixels
Height : 720 pixels
Display aspect ratio : 16:9
Frame rate : 25.000 fps
Chroma subsampling : 4:2:0
Bit depth : 8 bits
Scan type : Progressive
Compression mode : Lossy
Bits/(Pixel*Frame) : 0.130
Stream size : 50.9 MiB (91%)

Audio
ID : 1
Format : WMA
Codec ID : 162
Codec ID/Info : Windows Media Audio
Description of the codec : Windows Media Audio 10 Professional - 256 kbps, 44 kHz, 2 channel 16 bit 1-pass CBR
Duration : 2mn 22s
Bit rate mode : Constant
Bit rate : 256 Kbps
Channel(s) : 2 channels
Sampling rate : 44.1 KHz
Bit depth : 16 bits
Stream size : 4.35 MiB (8%)
Language : Hinglish 